<?xml version="1.0" encoding="utf-8"?>
<!-- Generator: Adobe Illustrator 16.0.0, SVG Export Plug-In . SVG Version: 6.00 Build 0)  -->
<!DOCTYPE svg [
	<!ENTITY ns_flows "http://ns.adobe.com/Flows/1.0/">
	<!ENTITY ns_extend "http://ns.adobe.com/Extensibility/1.0/">
	<!ENTITY ns_ai "http://ns.adobe.com/AdobeIllustrator/10.0/">
	<!ENTITY ns_graphs "http://ns.adobe.com/Graphs/1.0/">
	<!ENTITY ns_vars "http://ns.adobe.com/Variables/1.0/">
	<!ENTITY ns_imrep "http://ns.adobe.com/ImageReplacement/1.0/">
	<!ENTITY ns_sfw "http://ns.adobe.com/SaveForWeb/1.0/">
	<!ENTITY ns_custom "http://ns.adobe.com/GenericCustomNamespace/1.0/">
	<!ENTITY ns_adobe_xpath "http://ns.adobe.com/XPath/1.0/">
]>
<svg version="1.2" baseProfile="tiny" id="Layer_1" xmlns:x="&ns_extend;" xmlns:i="&ns_ai;" xmlns:graph="&ns_graphs;"
	 xmlns="http://www.w3.org/2000/svg" xmlns:xlink="http://www.w3.org/1999/xlink" xmlns:a="http://ns.adobe.com/AdobeSVGViewerExtensions/3.0/"
	 x="0px" y="0px" width="45px" height="45px" viewBox="0 0 45 45" overflow="scroll" xml:space="preserve">
<metadata>
	<sfw  xmlns="&ns_sfw;">
		<slices></slices>
		<sliceSourceBounds  width="25.6" height="25.6" x="498.7" y="371.7" bottomLeftOrigin="true"></sliceSourceBounds>
	</sfw>
</metadata>
<g>
	<path fill="#33BAB0" d="M22.5,9.7c-7.1,0-12.8,5.8-12.8,12.8c0,7.1,5.8,12.8,12.8,12.8c7.1,0,12.8-5.8,12.8-12.8
		C35.3,15.4,29.6,9.7,22.5,9.7z M22.7,14.8c0.399-0.4,0.899-0.6,1.399-0.6s1,0.2,1.4,0.6c0.4,0.4,0.6,0.9,0.6,1.4
		c0,0.6-0.199,1-0.6,1.4s-0.9,0.6-1.4,0.6l0,0c-0.6,0-1-0.2-1.399-0.6c-0.4-0.4-0.6-0.9-0.6-1.4S22.3,15.2,22.7,14.8z M26.9,27.4
		c-1,2.199-2.5,3.3-4.4,3.3l0,0c-0.8,0-1.3-0.2-1.8-0.5c-0.4-0.3-0.6-0.9-0.6-1.5c0-0.4,0.1-1,0.4-1.9l1.3-4.1
		c0.1-0.3,0.1-0.5,0.1-0.6s0-0.1,0-0.1s0,0-0.1,0c-0.3,0-0.7,0.4-1.3,1.5v0.1H19l0.1-0.199c1-2.2,2.5-3.4,4.5-3.4
		c0.7,0,1.2,0.2,1.601,0.5c0.399,0.4,0.6,0.9,0.6,1.5c0,0.4-0.2,1.1-0.399,2l-1.2,3.8c-0.2,0.5-0.3,0.9-0.3,1
		c0,0.101,0,0.101,0,0.101s0,0,0.1,0s0.4-0.101,0.7-0.5c0.3-0.301,0.5-0.7,0.7-1V27.3H27L26.9,27.4z"/>
</g>
</svg>
