<?xml version="1.0" encoding="utf-8"?>
<!-- Generator: Adobe Illustrator 16.0.0, SVG Export Plug-In . SVG Version: 6.00 Build 0)  -->
<!DOCTYPE svg PUBLIC "-//W3C//DTD SVG 1.1//EN" "http://www.w3.org/Graphics/SVG/1.1/DTD/svg11.dtd" [
	<!ENTITY ns_flows "http://ns.adobe.com/Flows/1.0/">
	<!ENTITY ns_extend "http://ns.adobe.com/Extensibility/1.0/">
	<!ENTITY ns_ai "http://ns.adobe.com/AdobeIllustrator/10.0/">
	<!ENTITY ns_graphs "http://ns.adobe.com/Graphs/1.0/">
	<!ENTITY st0 "fill:#FFFFFF;">
]>
<svg version="1.1" id="Layer_1" xmlns:x="&ns_extend;" xmlns:i="&ns_ai;" xmlns:graph="&ns_graphs;"
	 xmlns="http://www.w3.org/2000/svg" xmlns:xlink="http://www.w3.org/1999/xlink" xmlns:a="http://ns.adobe.com/AdobeSVGViewerExtensions/3.0/"
	 x="0px" y="0px" width="45px" height="45px" viewBox="0 0 45 45" style="enable-background:new 0 0 45 45;" xml:space="preserve">
<g>
	<g>
		<path style="&st0;" d="M22.5,9.7c-7.1,0-12.8,5.8-12.8,12.8c0,7.1,5.8,12.8,12.8,12.8c7.1,0,12.8-5.8,12.8-12.8
			C35.3,15.4,29.6,9.7,22.5,9.7z M22.7,14.8c0.4-0.4,0.9-0.6,1.4-0.6c0.5,0,1,0.2,1.4,0.6c0.4,0.4,0.6,0.9,0.6,1.4
			c0,0.6-0.2,1-0.6,1.4c-0.4,0.4-0.9,0.6-1.4,0.6h0c-0.6,0-1-0.2-1.4-0.6c-0.4-0.4-0.6-0.9-0.6-1.4C22.1,15.7,22.3,15.2,22.7,14.8z
			 M26.9,27.4c-1,2.2-2.5,3.3-4.4,3.3h0c-0.8,0-1.3-0.2-1.8-0.5c-0.4-0.3-0.6-0.9-0.6-1.5c0-0.4,0.1-1,0.4-1.9l1.3-4.1
			c0.1-0.3,0.1-0.5,0.1-0.6c0-0.1,0-0.1,0-0.1c0,0,0,0-0.1,0c-0.3,0-0.7,0.4-1.3,1.5l0,0.1H19l0.1-0.2c1-2.2,2.5-3.4,4.5-3.4
			c0.7,0,1.2,0.2,1.6,0.5c0.4,0.4,0.6,0.9,0.6,1.5c0,0.4-0.2,1.1-0.4,2l-1.2,3.8c-0.2,0.5-0.3,0.9-0.3,1c0,0.1,0,0.1,0,0.1
			c0,0,0,0,0.1,0c0.1,0,0.4-0.1,0.7-0.5c0.3-0.3,0.5-0.7,0.7-1l0-0.1H27L26.9,27.4z"/>
	</g>
</g>
</svg>
