<?xml version="1.0" encoding="utf-8"?>
<!-- Generator: Adobe Illustrator 16.0.0, SVG Export Plug-In . SVG Version: 6.00 Build 0)  -->
<!DOCTYPE svg PUBLIC "-//W3C//DTD SVG 1.1//EN" "http://www.w3.org/Graphics/SVG/1.1/DTD/svg11.dtd" [
	<!ENTITY ns_flows "http://ns.adobe.com/Flows/1.0/">
	<!ENTITY ns_extend "http://ns.adobe.com/Extensibility/1.0/">
	<!ENTITY ns_ai "http://ns.adobe.com/AdobeIllustrator/10.0/">
	<!ENTITY ns_graphs "http://ns.adobe.com/Graphs/1.0/">
	<!ENTITY ns_vars "http://ns.adobe.com/Variables/1.0/">
	<!ENTITY ns_imrep "http://ns.adobe.com/ImageReplacement/1.0/">
	<!ENTITY ns_sfw "http://ns.adobe.com/SaveForWeb/1.0/">
	<!ENTITY ns_custom "http://ns.adobe.com/GenericCustomNamespace/1.0/">
	<!ENTITY ns_adobe_xpath "http://ns.adobe.com/XPath/1.0/">
	<!ENTITY st0 "fill:#FFFFFF;">
]>
<svg version="1.1" id="Layer_1" xmlns:x="&ns_extend;" xmlns:i="&ns_ai;" xmlns:graph="&ns_graphs;"
	 xmlns="http://www.w3.org/2000/svg" xmlns:xlink="http://www.w3.org/1999/xlink" xmlns:a="http://ns.adobe.com/AdobeSVGViewerExtensions/3.0/"
	 x="0px" y="0px" width="399px" height="266px" viewBox="0 0 399 266" style="enable-background:new 0 0 399 266;"
	 xml:space="preserve">
<metadata>
	<sfw  xmlns="&ns_sfw;">
		<slices></slices>
		<sliceSourceBounds  width="359.1" height="223.8" x="334.6" y="268.2" bottomLeftOrigin="true"></sliceSourceBounds>
	</sfw>
</metadata>
<g>
	<g>
		<path style="&st0;" d="M22.6,25.6h16.2v89.1H22.6V25.6z"/>
		<path style="&st0;" d="M61.4,25.6h30.4c27.5,0,45.4,16.3,45.4,44.4s-17.9,44.7-45.4,44.7H61.4V25.6z M90.9,100.7
			c18.1,0,29.6-10.7,29.6-30.7c0-19.8-11.8-30.5-29.6-30.5H77.5v61.2H90.9z"/>
		<path style="&st0;" d="M197.9,91.8h-31.3l-7.5,22.8h-16.7l31.4-89.1h16.9l31.399,89.1H205.4L197.9,91.8z M182.2,41
			c0,0-2,8.8-3.8,13.8l-7.9,23.8h23.3L186,54.8c-1.6-5-3.5-13.8-3.5-13.8H182.2z"/>
		<path style="&st0;" d="M233.6,25.6H264c27.5,0,45.4,16.3,45.4,44.4s-17.9,44.7-45.4,44.7h-30.4V25.6z M263.1,100.7
			C281.2,100.7,292.7,90,292.7,70c0-19.8-11.8-30.5-29.601-30.5h-13.3v61.2H263.1z"/>
		<path style="&st0;" d="M326.3,25.6h53.3v13.9h-37.1v23.3h30v13.9h-30v24h39.2v13.9h-55.3v-89H326.3z"/>
	</g>
</g>
<g>
	<g>
		<path style="&st0;" d="M97.6,223.2c-1.7,5.2-4.3,9.7-7.6,13.6c-3.3,3.8-7.4,6.9-12.1,9.101c-4.8,2.199-10.2,3.3-16.3,3.3
			s-11.5-1.101-16.4-3.3c-4.8-2.2-8.9-5.2-12.2-9.101c-3.3-3.8-5.8-8.399-7.6-13.6c-1.7-5.2-2.6-10.8-2.6-16.7s0.9-11.5,2.6-16.7
			c1.7-5.2,4.3-9.7,7.6-13.6c3.3-3.8,7.4-6.9,12.2-9.101c4.8-2.199,10.3-3.3,16.4-3.3s11.5,1.101,16.3,3.3
			c4.8,2.2,8.8,5.2,12.1,9.101c3.3,3.8,5.8,8.399,7.6,13.6c1.7,5.2,2.6,10.8,2.6,16.7S99.4,218,97.6,223.2z M30.1,221.3
			c1.5,4.601,3.7,8.7,6.6,12.101c2.9,3.5,6.4,6.199,10.6,8.3c4.2,2.1,8.9,3.1,14.2,3.1s10-1,14.2-3.1c4.1-2.101,7.7-4.8,10.5-8.3
			c2.9-3.5,5.1-7.5,6.6-12.101c1.5-4.6,2.3-9.6,2.3-14.8s-0.8-10.2-2.3-14.8c-1.5-4.601-3.7-8.7-6.6-12.101
			c-2.9-3.5-6.4-6.199-10.5-8.3c-4.1-2.1-8.9-3.1-14.2-3.1s-10.1,1-14.2,3.1c-4.2,2.101-7.7,4.8-10.6,8.3
			c-2.9,3.5-5.1,7.5-6.6,12.101c-1.5,4.6-2.3,9.6-2.3,14.8S28.6,216.6,30.1,221.3z M64.7,144.1h5.8l-15.3,16H51L64.7,144.1z"/>
		<path style="&st0;" d="M164.1,189c-0.2-3.5-0.9-6.5-2.2-9.1c-1.3-2.601-3.1-4.7-5.4-6.5c-2.3-1.7-5-3.101-8.2-3.9
			c-3.2-0.9-6.6-1.3-10.3-1.3c-2.3,0-4.7,0.3-7.4,0.8c-2.6,0.5-5.1,1.5-7.3,2.8c-2.2,1.3-4.1,3.101-5.5,5.4
			c-1.4,2.2-2.2,5-2.2,8.399c0,3.301,0.8,5.9,2.4,8c1.6,2.101,3.7,3.7,6.3,5c2.6,1.301,5.5,2.301,8.9,3c3.3,0.801,6.7,1.5,10.1,2.2
			c3.5,0.7,6.9,1.5,10.2,2.5s6.3,2.2,8.9,3.9c2.6,1.6,4.7,3.7,6.3,6.3c1.6,2.6,2.4,5.9,2.4,9.9c0,4.3-0.9,7.8-2.7,10.699
			c-1.8,2.9-4.1,5.2-6.9,7.101c-2.8,1.8-5.9,3.1-9.2,3.899c-3.4,0.801-6.6,1.2-9.7,1.2c-4.8,0-9.3-0.5-13.5-1.5
			c-4.2-1-7.8-2.7-10.9-5c-3.1-2.3-5.6-5.3-7.4-8.899c-1.8-3.601-2.6-8.101-2.6-13.301h5c-0.2,4.5,0.4,8.301,1.9,11.301
			c1.5,3.1,3.6,5.6,6.3,7.6c2.7,2,5.9,3.4,9.6,4.3c3.6,0.9,7.5,1.3,11.5,1.3c2.4,0,5-0.3,7.8-0.899c2.8-0.601,5.3-1.601,7.6-3.101
			c2.3-1.399,4.3-3.3,5.8-5.699c1.6-2.4,2.3-5.301,2.3-8.9c0-3.4-0.8-6.2-2.4-8.4c-1.6-2.199-3.7-3.899-6.3-5.199
			c-2.6-1.301-5.6-2.4-8.9-3.2c-3.3-0.8-6.7-1.5-10.2-2.2c-3.4-0.7-6.8-1.5-10.1-2.4c-3.3-0.899-6.3-2.1-8.9-3.699
			c-2.6-1.601-4.7-3.601-6.3-6c-1.6-2.5-2.4-5.601-2.4-9.5c0-3.9,0.8-7.2,2.5-10c1.6-2.801,3.8-5,6.4-6.7c2.6-1.7,5.6-3,8.8-3.8
			c3.3-0.801,6.5-1.2,9.7-1.2c4.3,0,8.2,0.5,11.9,1.399c3.7,1,6.9,2.4,9.7,4.4s5,4.6,6.7,7.8c1.7,3.2,2.6,7,2.8,11.5h-4.9V189z"/>
		<path style="&st0;" d="M235.9,189c-0.2-3.5-0.9-6.5-2.2-9.1c-1.3-2.601-3.101-4.7-5.4-6.5c-2.3-1.7-5-3.101-8.2-3.9
			c-3.199-0.9-6.6-1.3-10.3-1.3c-2.3,0-4.7,0.3-7.399,0.8c-2.601,0.5-5.101,1.5-7.3,2.8c-2.2,1.3-4.1,3.101-5.5,5.4
			c-1.4,2.2-2.2,5-2.2,8.399c0,3.301,0.8,5.9,2.4,8c1.6,2.101,3.7,3.7,6.3,5c2.6,1.301,5.5,2.301,8.9,3c3.3,0.801,6.7,1.5,10.1,2.2
			c3.5,0.7,6.9,1.5,10.2,2.5s6.3,2.2,8.9,3.9c2.6,1.6,4.7,3.7,6.3,6.3s2.4,5.9,2.4,9.9c0,4.3-0.9,7.8-2.7,10.699
			c-1.8,2.9-4.101,5.2-6.9,7.101c-2.8,1.8-5.899,3.1-9.2,3.899c-3.399,0.801-6.6,1.2-9.699,1.2c-4.801,0-9.301-0.5-13.5-1.5
			c-4.2-1-7.8-2.7-10.9-5s-5.6-5.3-7.4-8.899c-1.8-3.601-2.6-8.101-2.6-13.301h5c-0.2,4.5,0.4,8.301,1.9,11.301
			c1.5,3.1,3.6,5.6,6.3,7.6c2.7,2,5.9,3.4,9.6,4.3c3.601,0.9,7.5,1.3,11.5,1.3c2.4,0,5-0.3,7.8-0.899
			c2.801-0.601,5.301-1.601,7.601-3.101c2.3-1.399,4.3-3.3,5.8-5.699c1.6-2.4,2.3-5.301,2.3-8.9c0-3.4-0.8-6.2-2.399-8.4
			c-1.601-2.199-3.7-3.899-6.301-5.199c-2.6-1.301-5.6-2.4-8.899-3.2s-6.7-1.5-10.2-2.2c-3.4-0.7-6.8-1.5-10.1-2.4
			c-3.3-0.899-6.3-2.1-8.9-3.699c-2.6-1.601-4.7-3.601-6.3-6c-1.6-2.5-2.4-5.601-2.4-9.5c0-3.9,0.8-7.2,2.5-10
			c1.6-2.801,3.8-5,6.4-6.7c2.6-1.7,5.6-3,8.8-3.8c3.3-0.801,6.5-1.2,9.7-1.2c4.3,0,8.2,0.5,11.899,1.399c3.7,1,6.9,2.4,9.7,4.4
			s5,4.6,6.7,7.8s2.6,7,2.8,11.5H235.9V189z"/>
		<path style="&st0;" d="M309.9,242.8v4.3H254.6V165.7h54.7v4.3h-49.7v32.6h46.7v4.301h-46.7v35.8H309.9V242.8z"/>
		<path style="&st0;" d="M348,165.8l32.1,81.4H374.7L364.6,221h-39L315.2,247.1h-5.4l32.7-81.399h5.5V165.8z M363,216.7L345.6,170.6
			H345.4L327.3,216.7H363z"/>
	</g>
</g>
</svg>
