<?xml version="1.0" encoding="utf-8"?>
<!-- Generator: Adobe Illustrator 16.0.0, SVG Export Plug-In . SVG Version: 6.00 Build 0)  -->
<!DOCTYPE svg PUBLIC "-//W3C//DTD SVG 1.1//EN" "http://www.w3.org/Graphics/SVG/1.1/DTD/svg11.dtd" [
	<!ENTITY ns_flows "http://ns.adobe.com/Flows/1.0/">
	<!ENTITY ns_extend "http://ns.adobe.com/Extensibility/1.0/">
	<!ENTITY ns_ai "http://ns.adobe.com/AdobeIllustrator/10.0/">
	<!ENTITY ns_graphs "http://ns.adobe.com/Graphs/1.0/">
	<!ENTITY ns_vars "http://ns.adobe.com/Variables/1.0/">
	<!ENTITY ns_imrep "http://ns.adobe.com/ImageReplacement/1.0/">
	<!ENTITY ns_sfw "http://ns.adobe.com/SaveForWeb/1.0/">
	<!ENTITY ns_custom "http://ns.adobe.com/GenericCustomNamespace/1.0/">
	<!ENTITY ns_adobe_xpath "http://ns.adobe.com/XPath/1.0/">
]>
<svg version="1.1" id="Layer_1" xmlns:x="&ns_extend;" xmlns:i="&ns_ai;" xmlns:graph="&ns_graphs;"
	 xmlns="http://www.w3.org/2000/svg" xmlns:xlink="http://www.w3.org/1999/xlink" xmlns:a="http://ns.adobe.com/AdobeSVGViewerExtensions/3.0/"
	 x="0px" y="0px" width="90px" height="97px" viewBox="0 0 90 97" style="enable-background:new 0 0 90 97;" xml:space="preserve">
<style type="text/css">
<![CDATA[
	.st0{fill:#FFFFFF;}
]]>
</style>
<metadata>
	<sfw  xmlns="&ns_sfw;">
		<slices></slices>
		<sliceSourceBounds  height="83.93" width="69.989" y="239.384" x="444.506" bottomLeftOrigin="true"></sliceSourceBounds>
	</sfw>
</metadata>
<g>
	<g>
		<path class="st0" d="M10.701,80.957h1.655l1.667,4.209c0.192,0.504,0.432,1.248,0.432,1.248h0.024c0,0,0.228-0.744,0.42-1.248
			l1.667-4.209h1.655l0.684,8.516H17.37l-0.36-4.762c-0.036-0.564-0.012-1.318-0.012-1.318h-0.024c0,0-0.252,0.828-0.456,1.318
			l-1.379,3.298h-1.355l-1.367-3.298c-0.204-0.492-0.468-1.332-0.468-1.332h-0.024c0,0,0.024,0.768-0.012,1.332l-0.36,4.762h-1.547
			L10.701,80.957z"/>
		<path class="st0" d="M25.039,87.289h-2.986l-0.72,2.184h-1.595l2.998-8.516h1.619l2.999,8.516h-1.595L25.039,87.289z
			 M23.54,82.432c0,0-0.192,0.84-0.36,1.319l-0.755,2.278h2.23L23.9,83.751c-0.156-0.479-0.336-1.319-0.336-1.319H23.54z"/>
		<path class="st0" d="M28.641,87.289c0,0,0.923,0.898,2.123,0.898c0.648,0,1.235-0.336,1.235-1.031c0-1.523-4.018-1.26-4.018-3.874
			c0-1.416,1.223-2.472,2.854-2.472c1.679,0,2.542,0.912,2.542,0.912l-0.672,1.26c0,0-0.815-0.744-1.883-0.744
			c-0.72,0-1.283,0.419-1.283,1.02c0,1.512,4.006,1.139,4.006,3.862c0,1.354-1.032,2.495-2.807,2.495
			c-1.895,0-2.938-1.164-2.938-1.164L28.641,87.289z"/>
		<path class="st0" d="M38.886,80.813c2.075,0,3.143,1.164,3.143,1.164l-0.744,1.15c0,0-0.972-0.898-2.327-0.898
			c-1.799,0-2.854,1.342-2.854,2.926c0,1.619,1.091,3.047,2.866,3.047c1.475,0,2.471-1.079,2.471-1.079l0.815,1.114
			c0,0-1.175,1.38-3.346,1.38c-2.603,0-4.401-1.931-4.401-4.438C34.509,82.708,36.38,80.813,38.886,80.813z"/>
		<path class="st0" d="M43.568,80.957h1.547v5.457c0,1.139,0.742,1.787,1.884,1.787c1.14,0,1.896-0.646,1.896-1.799v-5.445h1.547
			v5.457c0,1.906-1.379,3.202-3.43,3.202c-2.063,0-3.443-1.296-3.443-3.202L43.568,80.957L43.568,80.957z"/>
		<path class="st0" d="M52.484,80.957h1.547v7.184h3.683v1.332h-5.229V80.957L52.484,80.957z"/>
		<path class="st0" d="M58.952,80.957h1.547v8.516h-1.547V80.957z"/>
		<path class="st0" d="M62.66,80.957h1.547l3.227,4.917c0.323,0.492,0.709,1.319,0.709,1.319h0.022c0,0-0.084-0.815-0.084-1.319
			v-4.917h1.535v8.516h-1.535l-3.228-4.906c-0.324-0.491-0.707-1.318-0.707-1.318h-0.023c0,0,0.084,0.814,0.084,1.318v4.906H62.66
			V80.957z"/>
		<path class="st0" d="M75.594,80.813c2.508,0,4.401,1.908,4.401,4.342c0,2.507-1.896,4.462-4.401,4.462s-4.4-1.955-4.4-4.462
			C71.191,82.719,73.087,80.813,75.594,80.813z M75.594,88.2c1.561,0,2.807-1.296,2.807-3.046c0-1.68-1.246-2.928-2.807-2.928
			c-1.56,0-2.807,1.248-2.807,2.928C72.787,86.904,74.034,88.2,75.594,88.2z"/>
	</g>
</g>
<g>
	<path class="st0" d="M45,5.686c-17.31,0-31.344,14.033-31.344,31.345c0,17.311,14.035,31.344,31.344,31.344
		c17.313,0,31.344-14.034,31.344-31.344C76.344,19.719,62.313,5.686,45,5.686z M45,66.285c-16.155,0-29.255-13.098-29.255-29.255
		c0-16.158,13.1-29.255,29.255-29.255c16.158,0,29.256,13.098,29.256,29.255S61.158,66.285,45,66.285z"/>
</g>
<path class="st0" d="M56.766,23.227l-0.476,0.049l-7.156,0.731l0.277,2.441l4.675-0.479l-4.447,4.55
	c-1.521-1.118-3.395-1.781-5.425-1.781c-5.059,0-9.158,4.102-9.158,9.159c0,5.059,4.1,9.16,9.158,9.16s9.158-4.101,9.158-9.16
	c0-2.104-0.71-4.041-1.903-5.587l4.49-4.491l-0.354,4.872l2.533,0.095l0.807-9.78L56.766,23.227z M44.214,44.589
	c-3.696,0-6.691-2.996-6.691-6.692s2.995-6.692,6.691-6.692c3.694,0,6.692,2.997,6.692,6.692S47.908,44.589,44.214,44.589z"/>
</svg>
