<?xml version="1.0" encoding="utf-8"?>
<!-- Generator: Adobe Illustrator 16.0.0, SVG Export Plug-In . SVG Version: 6.00 Build 0)  -->
<!DOCTYPE svg PUBLIC "-//W3C//DTD SVG 1.1//EN" "http://www.w3.org/Graphics/SVG/1.1/DTD/svg11.dtd" [
	<!ENTITY ns_flows "http://ns.adobe.com/Flows/1.0/">
	<!ENTITY ns_extend "http://ns.adobe.com/Extensibility/1.0/">
	<!ENTITY ns_ai "http://ns.adobe.com/AdobeIllustrator/10.0/">
	<!ENTITY ns_graphs "http://ns.adobe.com/Graphs/1.0/">
]>
<svg version="1.1" id="Layer_1" xmlns:x="&ns_extend;" xmlns:i="&ns_ai;" xmlns:graph="&ns_graphs;"
	 xmlns="http://www.w3.org/2000/svg" xmlns:xlink="http://www.w3.org/1999/xlink" xmlns:a="http://ns.adobe.com/AdobeSVGViewerExtensions/3.0/"
	 x="0px" y="0px" width="90px" height="97px" viewBox="0 0 90 97" style="enable-background:new 0 0 90 97;" xml:space="preserve">
<g>
	<g>
		<path style="fill:#00FFFF;" d="M10.7,81h1.7l1.7,4.2c0.2,0.5,0.4,1.2,0.4,1.2h0c0,0,0.2-0.7,0.4-1.2l1.7-4.2h1.7l0.7,8.5h-1.5
			L17,84.7c0-0.6,0-1.3,0-1.3h0c0,0-0.3,0.8-0.5,1.3L15.1,88h-1.4l-1.4-3.3c-0.2-0.5-0.5-1.3-0.5-1.3h0c0,0,0,0.8,0,1.3l-0.4,4.8H10
			L10.7,81z"/>
		<path style="fill:#00FFFF;" d="M25,87.3h-3l-0.7,2.2h-1.6l3-8.5h1.6l3,8.5h-1.6L25,87.3z M23.5,82.4c0,0-0.2,0.8-0.4,1.3L22.4,86
			h2.2l-0.8-2.3C23.7,83.3,23.6,82.4,23.5,82.4L23.5,82.4z"/>
		<path style="fill:#00FFFF;" d="M28.6,87.3c0,0,0.9,0.9,2.1,0.9c0.6,0,1.2-0.3,1.2-1c0-1.5-4-1.3-4-3.9c0-1.4,1.2-2.5,2.9-2.5
			c1.7,0,2.5,0.9,2.5,0.9L32.7,83c0,0-0.8-0.7-1.9-0.7c-0.7,0-1.3,0.4-1.3,1c0,1.5,4,1.1,4,3.9c0,1.4-1,2.5-2.8,2.5
			c-1.9,0-2.9-1.2-2.9-1.2L28.6,87.3z"/>
		<path style="fill:#00FFFF;" d="M38.9,80.8C41,80.8,42,82,42,82l-0.7,1.2c0,0-1-0.9-2.3-0.9c-1.8,0-2.9,1.3-2.9,2.9
			c0,1.6,1.1,3,2.9,3c1.5,0,2.5-1.1,2.5-1.1l0.8,1.1c0,0-1.2,1.4-3.3,1.4c-2.6,0-4.4-1.9-4.4-4.4C34.5,82.7,36.4,80.8,38.9,80.8z"/>
		<path style="fill:#00FFFF;" d="M43.6,81h1.5v5.5c0,1.1,0.7,1.8,1.9,1.8c1.1,0,1.9-0.6,1.9-1.8V81h1.5v5.5c0,1.9-1.4,3.2-3.4,3.2
			c-2.1,0-3.4-1.3-3.4-3.2V81z"/>
		<path style="fill:#00FFFF;" d="M52.5,81H54v7.2h3.7v1.3h-5.2V81z"/>
		<path style="fill:#00FFFF;" d="M59,81h1.5v8.5H59V81z"/>
		<path style="fill:#00FFFF;" d="M62.7,81h1.5l3.2,4.9c0.3,0.5,0.7,1.3,0.7,1.3h0c0,0-0.1-0.8-0.1-1.3V81h1.5v8.5h-1.5l-3.2-4.9
			c-0.3-0.5-0.7-1.3-0.7-1.3h0c0,0,0.1,0.8,0.1,1.3v4.9h-1.5V81z"/>
		<path style="fill:#00FFFF;" d="M75.6,80.8c2.5,0,4.4,1.9,4.4,4.3c0,2.5-1.9,4.5-4.4,4.5s-4.4-2-4.4-4.5
			C71.2,82.7,73.1,80.8,75.6,80.8z M75.6,88.2c1.6,0,2.8-1.3,2.8-3c0-1.7-1.2-2.9-2.8-2.9s-2.8,1.2-2.8,2.9
			C72.8,86.9,74,88.2,75.6,88.2z"/>
	</g>
</g>
<g>
	<path style="fill:#00FFFF;" d="M45,5.7c-17.3,0-31.3,14-31.3,31.3c0,17.3,14,31.3,31.3,31.3c17.3,0,31.3-14,31.3-31.3
		C76.3,19.7,62.3,5.7,45,5.7z M45,66.3c-16.2,0-29.3-13.1-29.3-29.3C15.7,20.9,28.8,7.8,45,7.8c16.2,0,29.3,13.1,29.3,29.3
		C74.3,53.2,61.2,66.3,45,66.3z"/>
</g>
<path style="fill:#00FFFF;" d="M56.8,23.2l-0.5,0L49.1,24l0.3,2.4l4.7-0.5l-4.4,4.5c-1.5-1.1-3.4-1.8-5.4-1.8
	c-5.1,0-9.2,4.1-9.2,9.2c0,5.1,4.1,9.2,9.2,9.2c5.1,0,9.2-4.1,9.2-9.2c0-2.1-0.7-4-1.9-5.6l4.5-4.5l-0.4,4.9l2.5,0.1l0.8-9.8
	L56.8,23.2z M44.2,44.6c-3.7,0-6.7-3-6.7-6.7s3-6.7,6.7-6.7c3.7,0,6.7,3,6.7,6.7S47.9,44.6,44.2,44.6z"/>
</svg>
