<?xml version="1.0" encoding="utf-8"?>
<!-- Generator: Adobe Illustrator 16.0.0, SVG Export Plug-In . SVG Version: 6.00 Build 0)  -->
<!DOCTYPE svg PUBLIC "-//W3C//DTD SVG 1.1//EN" "http://www.w3.org/Graphics/SVG/1.1/DTD/svg11.dtd" [
	<!ENTITY ns_flows "http://ns.adobe.com/Flows/1.0/">
	<!ENTITY ns_extend "http://ns.adobe.com/Extensibility/1.0/">
	<!ENTITY ns_ai "http://ns.adobe.com/AdobeIllustrator/10.0/">
	<!ENTITY ns_graphs "http://ns.adobe.com/Graphs/1.0/">
	<!ENTITY ns_vars "http://ns.adobe.com/Variables/1.0/">
	<!ENTITY ns_imrep "http://ns.adobe.com/ImageReplacement/1.0/">
	<!ENTITY ns_sfw "http://ns.adobe.com/SaveForWeb/1.0/">
	<!ENTITY ns_custom "http://ns.adobe.com/GenericCustomNamespace/1.0/">
	<!ENTITY ns_adobe_xpath "http://ns.adobe.com/XPath/1.0/">
]>
<svg version="1.1" id="Layer_1" xmlns:x="&ns_extend;" xmlns:i="&ns_ai;" xmlns:graph="&ns_graphs;"
	 xmlns="http://www.w3.org/2000/svg" xmlns:xlink="http://www.w3.org/1999/xlink" xmlns:a="http://ns.adobe.com/AdobeSVGViewerExtensions/3.0/"
	 x="0px" y="0px" width="90px" height="97px" viewBox="0 0 90 97" style="enable-background:new 0 0 90 97;" xml:space="preserve">
<style type="text/css">
<![CDATA[
	.st0{fill:#FFFFFF;}
]]>
</style>
<metadata>
	<sfw  xmlns="&ns_sfw;">
		<slices></slices>
		<sliceSourceBounds  height="83.899" width="62.6" y="239.4" x="448.2" bottomLeftOrigin="true"></sliceSourceBounds>
	</sfw>
</metadata>
<g>
	<path class="st0" d="M45,5.7c-17.3,0-31.3,14-31.3,31.3s14,31.3,31.3,31.3s31.3-14,31.3-31.3S62.3,5.7,45,5.7z M45,66.3
		c-16.2,0-29.3-13.1-29.3-29.3C15.7,20.9,28.8,7.8,45,7.8s29.3,13.1,29.3,29.3C74.3,53.2,61.2,66.3,45,66.3z"/>
</g>
<path class="st0" d="M46.667,54.6L46.7,43.1c1.899-0.3,3.7-1.2,5.1-2.6c3.5-3.6,3.5-9.4-0.1-13c-3.601-3.5-9.4-3.5-13,0.1
	c-3.5,3.6-3.5,9.4,0.1,13c1.5,1.5,3.4,2.3,5.3,2.6L44.104,54.6 M40.4,29.3c2.6-2.6,6.8-2.7,9.5-0.1c2.6,2.6,2.699,6.8,0.1,9.5
	c-2.6,2.6-6.8,2.7-9.5,0.1C37.8,36.2,37.8,32,40.4,29.3z"/>
<g>
	<g>
		<path class="st0" d="M16.1,81H21v1.3h-3.3v2.4h2.8V86h-2.8v3.4h-1.5V81H16.1z"/>
		<path class="st0" d="M22.5,81h5.1v1.3H24v2.2h2.9v1.3H24v2.3h3.7V89.4h-5.3V81H22.5z"/>
		<path class="st0" d="M29.8,81h1.7l1.7,4.2c0.2,0.5,0.4,1.2,0.4,1.2l0,0c0,0,0.2-0.7,0.4-1.2l1.7-4.2h1.7l0.7,8.5h-1.5l-0.4-4.8
			c0-0.601,0-1.3,0-1.3l0,0c0,0-0.3,0.8-0.5,1.3L34.3,88h-1.4l-1.4-3.3c-0.2-0.5-0.5-1.3-0.5-1.3l0,0c0,0,0,0.8,0,1.3l-0.4,4.8h-1.5
			L29.8,81z"/>
		<path class="st0" d="M39.9,81h1.5v8.5h-1.5V81z"/>
		<path class="st0" d="M43.6,81h1.5l3.2,4.9c0.3,0.5,0.7,1.3,0.7,1.3l0,0c0,0-0.1-0.8-0.1-1.3V81h1.5v8.5h-1.5l-3.2-4.9
			c-0.3-0.5-0.7-1.3-0.7-1.3l0,0c0,0,0.1,0.8,0.1,1.3v4.9h-1.5V81z"/>
		<path class="st0" d="M52.8,81h1.5v8.5h-1.5V81z"/>
		<path class="st0" d="M56.5,81H58l3.2,4.9c0.3,0.5,0.7,1.3,0.7,1.3l0,0c0,0-0.101-0.8-0.101-1.3V81h1.5v8.5h-1.5l-3.2-4.9
			c-0.3-0.5-0.699-1.3-0.699-1.3l0,0c0,0,0.1,0.8,0.1,1.3v4.9h-1.5V81z"/>
		<path class="st0" d="M69.4,80.8c2.5,0,4.399,1.9,4.399,4.3c0,2.5-1.899,4.5-4.399,4.5s-4.4-2-4.4-4.5C65,82.7,66.9,80.8,69.4,80.8
			z M69.4,88.2c1.6,0,2.8-1.3,2.8-3s-1.2-2.9-2.8-2.9c-1.601,0-2.801,1.2-2.801,2.9S67.8,88.2,69.4,88.2z"/>
	</g>
</g>
<rect x="40.625" y="48.022" class="st0" width="9.25" height="2.553"/>
</svg>
