<?xml version="1.0" encoding="utf-8"?>
<!-- Generator: Adobe Illustrator 16.0.0, SVG Export Plug-In . SVG Version: 6.00 Build 0)  -->
<!DOCTYPE svg PUBLIC "-//W3C//DTD SVG 1.1//EN" "http://www.w3.org/Graphics/SVG/1.1/DTD/svg11.dtd" [
	<!ENTITY ns_flows "http://ns.adobe.com/Flows/1.0/">
	<!ENTITY ns_extend "http://ns.adobe.com/Extensibility/1.0/">
	<!ENTITY ns_ai "http://ns.adobe.com/AdobeIllustrator/10.0/">
	<!ENTITY ns_graphs "http://ns.adobe.com/Graphs/1.0/">
]>
<svg version="1.1" id="Layer_1" xmlns:x="&ns_extend;" xmlns:i="&ns_ai;" xmlns:graph="&ns_graphs;"
	 xmlns="http://www.w3.org/2000/svg" xmlns:xlink="http://www.w3.org/1999/xlink" xmlns:a="http://ns.adobe.com/AdobeSVGViewerExtensions/3.0/"
	 x="0px" y="0px" width="90px" height="97px" viewBox="0 0 90 97" style="enable-background:new 0 0 90 97;" xml:space="preserve">
<g>
	<path style="fill:#00FFFF;" d="M45,5.7c-17.3,0-31.3,14-31.3,31.3c0,17.3,14,31.3,31.3,31.3c17.3,0,31.3-14,31.3-31.3
		C76.3,19.7,62.3,5.7,45,5.7z M45,66.3c-16.2,0-29.3-13.1-29.3-29.3C15.7,20.9,28.8,7.8,45,7.8c16.2,0,29.3,13.1,29.3,29.3
		C74.3,53.2,61.2,66.3,45,66.3z"/>
</g>
<path style="fill:#00FFFF;" d="M46.8,53.3l0.3-0.4l4.5-5.6l-1.9-1.5l-2.9,3.7l-0.1-6.4c1.9-0.3,3.7-1.2,5.1-2.6
	c3.5-3.6,3.5-9.4-0.1-13c-3.6-3.5-9.4-3.5-13,0.1c-3.5,3.6-3.5,9.4,0.1,13c1.5,1.5,3.4,2.3,5.3,2.6l0.1,6.4l-3.2-3.7L39,47.5
	l6.4,7.4L46.8,53.3z M40.4,29.3c2.6-2.6,6.8-2.7,9.5-0.1c2.6,2.6,2.7,6.8,0.1,9.5c-2.6,2.6-6.8,2.7-9.5,0.1
	C37.8,36.2,37.8,32,40.4,29.3z"/>
<g>
	<g>
		<path style="fill:#00FFFF;" d="M16.1,81H21v1.3h-3.3v2.4h2.8V86h-2.8v3.4h-1.5V81z"/>
		<path style="fill:#00FFFF;" d="M22.5,81h5.1v1.3H24v2.2h2.9v1.3H24v2.3h3.7v1.3h-5.3V81z"/>
		<path style="fill:#00FFFF;" d="M29.8,81h1.7l1.7,4.2c0.2,0.5,0.4,1.2,0.4,1.2h0c0,0,0.2-0.7,0.4-1.2l1.7-4.2h1.7l0.7,8.5h-1.5
			l-0.4-4.8c0-0.6,0-1.3,0-1.3h0c0,0-0.3,0.8-0.5,1.3L34.3,88h-1.4l-1.4-3.3c-0.2-0.5-0.5-1.3-0.5-1.3h0c0,0,0,0.8,0,1.3l-0.4,4.8
			h-1.5L29.8,81z"/>
		<path style="fill:#00FFFF;" d="M39.9,81h1.5v8.5h-1.5V81z"/>
		<path style="fill:#00FFFF;" d="M43.6,81h1.5l3.2,4.9c0.3,0.5,0.7,1.3,0.7,1.3h0c0,0-0.1-0.8-0.1-1.3V81h1.5v8.5h-1.5l-3.2-4.9
			c-0.3-0.5-0.7-1.3-0.7-1.3h0c0,0,0.1,0.8,0.1,1.3v4.9h-1.5V81z"/>
		<path style="fill:#00FFFF;" d="M52.8,81h1.5v8.5h-1.5V81z"/>
		<path style="fill:#00FFFF;" d="M56.5,81H58l3.2,4.9c0.3,0.5,0.7,1.3,0.7,1.3h0c0,0-0.1-0.8-0.1-1.3V81h1.5v8.5h-1.5l-3.2-4.9
			c-0.3-0.5-0.7-1.3-0.7-1.3h0c0,0,0.1,0.8,0.1,1.3v4.9h-1.5V81z"/>
		<path style="fill:#00FFFF;" d="M69.4,80.8c2.5,0,4.4,1.9,4.4,4.3c0,2.5-1.9,4.5-4.4,4.5c-2.5,0-4.4-2-4.4-4.5
			C65,82.7,66.9,80.8,69.4,80.8z M69.4,88.2c1.6,0,2.8-1.3,2.8-3c0-1.7-1.2-2.9-2.8-2.9c-1.6,0-2.8,1.2-2.8,2.9
			C66.6,86.9,67.8,88.2,69.4,88.2z"/>
	</g>
</g>
</svg>
